<svg xmlns="http://www.w3.org/2000/svg" width="84" height="96" viewBox="0 0 84 96">
  <defs>
    <style>
      .cls-1 {
        fill: #fff;
        fill-rule: evenodd;
      }
    </style>
  </defs>
  <path class="cls-1" d="M778,290H722V226h-8v64a8.009,8.009,0,0,0,8,8h56a8.008,8.008,0,0,0,8-8V226h-8v64Zm-10-76v-4a8.008,8.008,0,0,0-8-8H740a8.009,8.009,0,0,0-8,8v4H708v8h84v-8H768Zm-8,0H740v-4h20v4Zm-30,18v50h8V232h-8Zm32,0v50h8V232h-8Zm-16,0v50h8V232h-8Z" transform="translate(-708 -202)"/>
</svg>
