<svg xmlns="http://www.w3.org/2000/svg" width="90.062" height="90" viewBox="0 0 90.062 90">
  <defs>
    <style>
      .cls-1 {
        fill: #3f98cf;
        fill-rule: evenodd;
      }
    </style>
  </defs>
  <path class="cls-1" d="M246.3,23.9l-10.01-10a9.181,9.181,0,0,0-6.808-2.9,9.632,9.632,0,0,0-6.807,2.8L161.8,74.5a9.46,9.46,0,0,0-2.8,6.7V96a5.018,5.018,0,0,0,5.006,5h14.716a9.714,9.714,0,0,0,6.807-2.8L246.2,37.4A9.5,9.5,0,0,0,246.3,23.9Zm-65.27,69.7a3.107,3.107,0,0,1-2.2.9H165.508V81.2a3.1,3.1,0,0,1,.9-2.2l45.85-45.7,14.415,14.4ZM241.69,32.8L231.279,43.1,216.864,28.8l10.411-10.4a3.145,3.145,0,0,1,4.405,0l10.01,10A3.135,3.135,0,0,1,241.69,32.8Z" transform="translate(-159 -11)"/>
</svg>
