<svg xmlns="http://www.w3.org/2000/svg" width="96.093" height="97"><defs><style>.cls-1 { fill: #253540; stroke: #000; stroke-linecap: round; stroke-width: 1px; fill-rule: evenodd; }</style></defs><path d="M3.65 85.97h88.78V96.5H3.65V85.97zm66.9-45.94h11.6v39.2h-11.6v-39.2zm-28.8 0h12.58v39.2h-12.6v-39.2zm-27.82 0h11.6v39.2h-11.6v-39.2zm78.8-16.34L50.54 1.07a5.63 5.63 0 0 0-4.98 0l-42.2 22.6a5.1 5.1 0 0 0-2.66 5.9 5.33 5.33 0 0 0 5.13 4.03h84.42a5.33 5.33 0 0 0 5.14-4.02 5.1 5.1 0 0 0-2.66-5.9z" class="cls-1"/></svg>