<svg xmlns="http://www.w3.org/2000/svg" width="84" height="90"><defs><style>.cls-1 { fill: #253540; fill-rule: evenodd; }</style></defs><path d="M74.15 0H9.85A10 10 0 0 0 0 10v70.15A9.86 9.86 0 0 0 9.85 90h64.3A9.86 9.86 0 0 0 84 80.15V10a10 10 0 0 0-9.85-10zM50 8h12v23.68l-3.5-2.8a4 4 0 0 0-5 0l-3.5 2.8V8zm26 72.15A1.85 1.85 0 0 1 74.15 82H9.85A1.85 1.85 0 0 1 8 80.15V9.85A1.85 1.85 0 0 1 9.85 8H42v32a4 4 0 0 0 6.5 3.12l7.5-6 7.5 6A4 4 0 0 0 70 40V8h4.15A1.85 1.85 0 0 1 76 9.85v70.3z" class="cls-1"/></svg>