<svg xmlns="http://www.w3.org/2000/svg" width="21" height="21"><defs><style>.cls-1 { fill: #253540; fill-rule: evenodd; }</style></defs><path d="M10.5 0A10.5 10.5 0 1 0 21 10.5 10.5 10.5 0 0 0 10.5 0zm0 19.1a8.6 8.6 0 1 1 8.6-8.6 8.6 8.6 0 0 1-8.6 8.6zm0-15.28a6.68 6.68 0 1 0 6.68 6.68 6.7 6.7 0 0 0-6.68-6.68zm0 11.45a4.77 4.77 0 1 1 4.77-4.77 4.78 4.78 0 0 1-4.77 4.77zm0-7.63a2.86 2.86 0 1 0 2.86 2.86 2.87 2.87 0 0 0-2.86-2.86zm0 3.82a.95.95 0 1 1 .95-.96.96.96 0 0 1-.95.95z" class="cls-1"/></svg>