<svg xmlns="http://www.w3.org/2000/svg" width="26" height="26" viewBox="0 0 26 26">
  <metadata><?xpacket begin="﻿" id="W5M0MpCehiHzreSzNTczkc9d"?>
<x:xmpmeta xmlns:x="adobe:ns:meta/" x:xmptk="Adobe XMP Core 5.6-c138 79.159824, 2016/09/14-01:09:01        ">
   <rdf:RDF xmlns:rdf="http://www.w3.org/1999/02/22-rdf-syntax-ns#">
      <rdf:Description rdf:about=""/>
   </rdf:RDF>
</x:xmpmeta>
                                                                                                    
                                                                                                    
                                                                                                    
                                                                                                    
                                                                                                    
                                                                                                    
                                                                                                    
                                                                                                    
                                                                                                    
                                                                                                    
                                                                                                    
                                                                                                    
                                                                                                    
                                                                                                    
                                                                                                    
                                                                                                    
                                                                                                    
                                                                                                    
                                                                                                    
                                                                                                    
                           
<?xpacket end="w"?></metadata>
<defs>
    <style>
      .cls-1 {
        fill: #95c64e;
        fill-rule: evenodd;
      }
    </style>
  </defs>
  <path class="cls-1" d="M784,538a13,13,0,1,1-13,13A13,13,0,0,1,784,538Zm8.534,9.467a1.042,1.042,0,0,0-.3-0.733l-1.467-1.467a1.042,1.042,0,0,0-1.467,0l-7.077,7.087-3.171-3.182a1.043,1.043,0,0,0-1.468,0l-1.467,1.467a1.042,1.042,0,0,0,0,1.467l3.9,3.9,1.468,1.468a1.042,1.042,0,0,0,1.467,0l1.467-1.468,7.81-7.81A1.043,1.043,0,0,0,792.534,547.467Z" transform="translate(-771 -538)"/>
</svg>
