<svg xmlns="http://www.w3.org/2000/svg" width="26" height="23" viewBox="0 0 26 23">
  <metadata><?xpacket begin="﻿" id="W5M0MpCehiHzreSzNTczkc9d"?>
<x:xmpmeta xmlns:x="adobe:ns:meta/" x:xmptk="Adobe XMP Core 5.6-c138 79.159824, 2016/09/14-01:09:01        ">
   <rdf:RDF xmlns:rdf="http://www.w3.org/1999/02/22-rdf-syntax-ns#">
      <rdf:Description rdf:about=""/>
   </rdf:RDF>
</x:xmpmeta>
                                                                                                    
                                                                                                    
                                                                                                    
                                                                                                    
                                                                                                    
                                                                                                    
                                                                                                    
                                                                                                    
                                                                                                    
                                                                                                    
                                                                                                    
                                                                                                    
                                                                                                    
                                                                                                    
                                                                                                    
                                                                                                    
                                                                                                    
                                                                                                    
                                                                                                    
                                                                                                    
                           
<?xpacket end="w"?></metadata>
<defs>
    <style>
      .cls-1 {
        fill: #f7b911;
        fill-rule: evenodd;
      }
    </style>
  </defs>
  <path class="cls-1" d="M800.684,921.606l-11.3-19.625c-0.76-1.319-2-1.319-2.762,0l-11.3,19.625c-0.759,1.319-.138,2.4,1.381,2.4h22.6C800.822,924,801.444,922.925,800.684,921.606Zm-12.634-.2a1.869,1.869,0,1,1,1.863-1.868A1.866,1.866,0,0,1,788.05,921.4Zm2.226-12.207-0.264,4.958a1.972,1.972,0,0,1-1.94,1.842h-0.044a2,2,0,0,1-1.959-1.841l-0.317-4.96a1.711,1.711,0,0,1,1.723-1.842h1.058A1.734,1.734,0,0,1,790.276,909.2Z" transform="translate(-775 -901)"/>
</svg>
