<svg xmlns="http://www.w3.org/2000/svg" width="48" height="43.688"><defs><style>.cls-1 { fill: #253540; fill-rule: evenodd; }</style></defs><path d="M46.9 11.3L24.9.2a1.9 1.9 0 0 0-1.8 0l-22 11.1a1.76 1.76 0 0 0-.5.4l-.1.1a2.2 2.2 0 0 0-.3.5c0 .1-.1.1-.1.2a1.74 1.74 0 0 0-.1.72V28.4a2 2 0 1 0 4 0V16.46l3.3 1.7v8.9c0 .7.4 8.42 1.1 8.82l14.7 7.77c.3.2.6-6.8.9-6.8s.6 6.9.9 6.8l14.7-7.78a1.9 1.9 0 0 0 1.1-1.83v-15.9l6.2-3.12a1.9 1.9 0 0 0 1.1-1.82 2.17 2.17 0 0 0-1.1-1.92zM36.7 32.77L24 39.43l-12.7-6.67V20.1l11.8 5.96a2.1 2.1 0 0 0 1.8 0l11.8-5.96v12.66zM24 22.02l-17.5-8.9L24 4.35l17.5 8.9z" class="cls-1"/></svg>