<svg xmlns="http://www.w3.org/2000/svg" width="22" height="20"><defs><style>.cls-1 { fill: #253540; fill-rule: evenodd; }</style></defs><path d="M19.1 0H2.9A2.94 2.94 0 0 0 0 2.98v14.04A2.94 2.94 0 0 0 2.9 20h16.2a2.94 2.94 0 0 0 2.9-2.98V2.98A2.94 2.94 0 0 0 19.1 0zM2.9 1.58h16.2a1.38 1.38 0 0 1 1.36 1.4v2.65H1.54V2.98a1.38 1.38 0 0 1 1.36-1.4zm16.2 16.84H2.9a1.38 1.38 0 0 1-1.36-1.4V7.24h18.92v9.78a1.38 1.38 0 0 1-1.36 1.4zM6.96 9.84H4.12a.8.8 0 0 0 0 1.58h2.84a.8.8 0 0 0 0-1.6zm0 3.68H4.12a.8.8 0 0 0 0 1.6h2.84a.8.8 0 0 0 0-1.6zm5.47-3.68H9.56a.8.8 0 0 0 0 1.58h2.84a.78.78 0 0 0 .78-.8.76.76 0 0 0-.75-.8zm0 3.68H9.56a.8.8 0 0 0 0 1.6h2.84a.78.78 0 0 0 .78-.8.76.76 0 0 0-.75-.8zm5.45-3.68h-2.84a.8.8 0 0 0 0 1.58h2.84a.8.8 0 0 0 0-1.6zm0 3.68h-2.84a.8.8 0 0 0 0 1.6h2.84a.8.8 0 0 0 0-1.6zM4.98 2.38a1.2 1.2 0 1 1-1.18 1.2 1.2 1.2 0 0 1 1.17-1.2zm12.05 0a1.2 1.2 0 1 1-1.17 1.2 1.2 1.2 0 0 1 1.17-1.2z" class="cls-1"/></svg>