<svg xmlns="http://www.w3.org/2000/svg" width="88.407" height="88.219" viewBox="0 0 88.407 88.219">
  <defs>
    <style>
      .cls-1 {
        fill: #fff;
        fill-rule: evenodd;
      }
    </style>
  </defs>
  <path class="cls-1" d="M203.512,25.553a4.015,4.015,0,0,0-4.02,4.008V57.275l15.245,15.2a4.014,4.014,0,1,0,5.684-5.668l-12.89-12.855v-24.4A4.016,4.016,0,0,0,203.512,25.553Zm31.238-1.1a43.948,43.948,0,0,0-37.519-12.475,4.009,4.009,0,1,0,1.133,7.938,36.092,36.092,0,1,1-20.839,10.624l0.64,7.031a4.02,4.02,0,0,0,8.007-.727l-1.421-15.59a4.014,4.014,0,0,0-4-3.645H163.692a4.007,4.007,0,1,0,0,8.015h7.41A44.151,44.151,0,1,0,234.75,24.45Z" transform="translate(-159.281 -11.5)"/>
</svg>
