<svg xmlns="http://www.w3.org/2000/svg" width="21" height="21"><defs><style>.cls-1 { fill: #253540; fill-rule: evenodd; }</style></defs><path d="M19.4 21H1.6A1.6 1.6 0 0 1 0 19.4v-1.26c0-.6 0-2.38 6.7-4.3C5 11.96 4.3 9.78 4.3 6.68 4.3 2.1 7.37.03 10.44 0h.07c3.1 0 6.2 2.07 6.2 6.68 0 3.1-.7 5.28-2.4 7.16 6.7 1.92 6.7 3.7 6.7 4.3v1.26a1.6 1.6 0 0 1-1.6 1.6zM1.9 19.1h17.2v-.96c-.1-.3-1.57-1.56-6.92-2.9a.95.95 0 0 1-.38-1.66c2.2-1.8 3-3.67 3-6.9 0-3.5-2.18-4.75-4.24-4.77h-.06c-2.08 0-4.3 1.26-4.3 4.78 0 3.23.82 5.1 3 6.9a.95.95 0 0 1-.38 1.66c-5.35 1.34-6.82 2.6-6.9 2.92z" class="cls-1"/></svg>