<svg xmlns="http://www.w3.org/2000/svg" width="3.624" height="8.593"><defs><style>.cls-1 { fill: #3d444a; fill-rule: evenodd; }</style></defs><path d="M3.52 7.66l-.1.5q-.53.2-.84.3a2.08 2.08 0 0 1-.7.12 1.38 1.38 0 0 1-.98-.32 1.05 1.05 0 0 1-.34-.8 2.98 2.98 0 0 1 .02-.4c.02-.13.05-.28.1-.44l.4-1.6c.05-.15.1-.3.1-.43a1.95 1.95 0 0 0 .05-.4.6.6 0 0 0-.12-.42.66.66 0 0 0-.44-.13 1.16 1.16 0 0 0-.34.06c-.1.04-.2.08-.3.1l.13-.5c.28-.1.55-.2.8-.3a2.3 2.3 0 0 1 .73-.12 1.34 1.34 0 0 1 .96.32 1.07 1.07 0 0 1 .33.8c0 .08 0 .2-.02.38a2.53 2.53 0 0 1-.1.48l-.4 1.58c-.05.13-.08.27-.1.44a2.56 2.56 0 0 0-.05.37.55.55 0 0 0 .14.43.73.73 0 0 0 .46.1 1.32 1.32 0 0 0 .36-.05 1.8 1.8 0 0 0 .28-.1zM3.62 1a.95.95 0 0 1-.3.7 1 1 0 0 1-.7.3 1 1 0 0 1-.73-.3.95.95 0 0 1-.3-.7.96.96 0 0 1 .3-.7A1.03 1.03 0 0 1 3.3.3a.95.95 0 0 1 .3.7z" class="cls-1"/></svg>