<svg xmlns="http://www.w3.org/2000/svg" viewBox="0 0 63.02 74.01"><defs><style>.a{fill:url(#a);}.b{fill:url(#b);}.c{fill:url(#c);}.d{fill:#fff;}</style><linearGradient id="a" x1="58.55" x2="40.24" y1="249.87" y2="268.18" gradientTransform="translate(0 -192)" gradientUnits="userSpaceOnUse"><stop offset="0" stop-color="#00ed92"/><stop offset="1" stop-color="#09cfed"/></linearGradient><linearGradient id="b" x1="32.48" x2="32.48" y1="236.9" y2="276.08" gradientTransform="translate(0 -192)" gradientUnits="userSpaceOnUse"><stop offset="0" stop-color="#ffe034"/><stop offset="1" stop-color="#ff46ff"/></linearGradient><linearGradient id="c" x1="45.16" x2="45.16" y1="207.83" y2="265.9" gradientTransform="translate(0 -192)" gradientUnits="userSpaceOnUse"><stop offset="0" stop-color="#00c6ff"/><stop offset="1" stop-color="#006eff"/></linearGradient></defs><title>facebook-groups</title><path d="M36.5 48.83a12.6 12.6 0 1 1-12.67 12.6 12.63 12.63 0 0 1 12.68-12.6z" class="a"/><path d="M20 29A19.84 19.84 0 1 1 0 48.83 19.9 19.9 0 0 1 20 29z" class="b"/><path d="M32.67 0A30.14 30.14 0 1 1 2.32 30.13 30.24 30.24 0 0 1 32.67 0z" class="c"/><path d="M37.42 34.85a3.35 3.35 0 0 0-1.07 2.76 6.26 6.26 0 0 0 0 .7 19.85 19.85 0 0 0 1.07-3.45zM55.32 37.65c0-3.47-2.5-3.43-5.94-5.3A1.75 1.75 0 0 1 48.5 31a10.9 10.9 0 0 1-.18-1.6 4.6 4.6 0 0 0 .7-2 .3.3 0 0 0 .3-.2 6.52 6.52 0 0 0 .28-.93 5.54 5.54 0 0 0 .13-.68.6.6 0 0 0-.22-.6.56.56 0 0 0-.2 0c.06-.72.1-1.33.1-1.84a.56.56 0 0 0 .36-.25c0-.1.22-3.6-3.9-3.6a3.26 3.26 0 0 0-2.15.7c-1.2.1-1.5.84-1.42 3.36 0 .46 0 1 .07 1.6a.5.5 0 0 0-.27 0 .6.6 0 0 0-.24.6 5.5 5.5 0 0 0 .13.68 6.53 6.53 0 0 0 .27.92.3.3 0 0 0 .35.2 4.6 4.6 0 0 0 .63 1.8l.16.2a10.78 10.78 0 0 1-.17 1.64 1.7 1.7 0 0 1-.9 1.38c-.48.26-1 .48-1.38.67 1.7 1.17 2.26 3.73 2.7 6.9 0 .2 0 .4.07.58h2.16c3.25 0 5.9.05 7.26 0 2.44-.13 2.18-1.45 2.18-2.88zM20.33 39.9c.4-2.82.9-5.16 2.2-6.46l-.56-.3A1.87 1.87 0 0 1 20.9 32a12.8 12.8 0 0 1-.2-1.8 2.77 2.77 0 0 0 .8-1.3c.1-.3.16-.6.23-1a1.3 1.3 0 0 0 .64-1.18c.1-.62.13-1.22-.27-1.2H22c.4-2.28 0-4.27-1.5-5s-4.08-1-5.33 1.54c-.4.83-.15 2.63 0 3.48a.46.46 0 0 0-.15 0c-.37 0-.35.58-.28 1.2a1.33 1.33 0 0 0 .63 1.26c.07.34.14.65.2.94a2.76 2.76 0 0 0 .75 1.23 13.22 13.22 0 0 1-.2 1.83 1.87 1.87 0 0 1-1.08 1.18c-4.3 2.32-5.3 2.17-5.6 4.85-.14 1.23-.88 2.4 2 2.5 2.1.08 4.72 0 7 0 .63 0 1.23 0 1.84 0 0-.22.02-.4.05-.62zM27.38 37.72a3.87 3.87 0 0 0-.5-1.56q.22.84.5 1.56zM23.97 42.53c-2.2-.24-2.46-1.23-2.17-3.22.42-2.9.94-5.17 2.78-5.9 1.18-.48 3.5-1.1 4.26-1.73a4.15 4.15 0 0 0 .94-2.9 6.1 6.1 0 0 1-1.66.12 2.54 2.54 0 0 0 .52-.53c-1-.13-2.13-.37-2.13-.37a2.12 2.12 0 0 0 .85-1.26c0-.68-.34-1-.46-2.17a8.26 8.26 0 0 1 1.2-5.42c.9-1.7 2.47-1.9 3.1-1.4.2-1 3.25-1.4 4.9 1.4a7.44 7.44 0 0 1 1.1 5.33c-.23 1.15-.27 1.57-.35 2.16a1.3 1.3 0 0 0 .74 1.25 9 9 0 0 1-2 .54 1.93 1.93 0 0 0 .6.56 10.32 10.32 0 0 1-1.77-.2 4.17 4.17 0 0 0 .94 2.9c.76.64 3.12 1.1 4.23 1.72 2.13 1.18 2.36 3.77 2.6 5.92s-.36 3.07-2.16 3.2c-2.66.17-14.53.16-16.07 0z" class="d"/></svg>