<svg xmlns="http://www.w3.org/2000/svg" width="57" height="57"><defs><style>.cls-1 { fill: #91b586; } .cls-2 { fill: #fff; fill-rule: evenodd; }</style></defs><rect id="Rounded_Rectangle_10" width="57" height="57" class="cls-1" rx="3" ry="3"/><path d="M34.6 33.34a5.4 5.4 0 0 0-3.35 1.15l-7.68-4.96a5.3 5.3 0 0 0 0-3.13l7.56-4.98a5.32 5.32 0 1 0-1.93-4.08 5.14 5.14 0 0 0 .2 1.38l-7.7 5.07a5.34 5.34 0 1 0 .05 8.38l7.68 4.95a5.3 5.3 0 0 0-.23 1.54 5.4 5.4 0 1 0 5.4-5.33zM16.6 28a1.8 1.8 0 0 1 1.26-1.7 1.9 1.9 0 0 1 .54-.07 1.8 1.8 0 0 1 1.63 1.03 1.73 1.73 0 0 1 0 1.47 1.8 1.8 0 0 1-1.63 1.05 1.74 1.74 0 0 1-.5-.08 1.77 1.77 0 0 1-1.3-1.7z" class="cls-2"/></svg>