<svg xmlns="http://www.w3.org/2000/svg" width="84" height="90" viewBox="0 0 84 90">
  <defs>
    <style>
      .cls-1 {
        fill: #253540;
        fill-rule: evenodd;
      }
    </style>
  </defs>
  <path class="cls-1" d="M672.151,498h-64.3A9.989,9.989,0,0,0,598,508v70.152A9.858,9.858,0,0,0,607.846,588h64.306A9.859,9.859,0,0,0,682,578.152V508A9.992,9.992,0,0,0,672.151,498ZM648,506h12v23.678l-3.5-2.8a4.005,4.005,0,0,0-5,0l-3.5,2.8V506Zm26,72.152A1.849,1.849,0,0,1,672.151,580h-64.3A1.848,1.848,0,0,1,606,578.152v-70.3A1.848,1.848,0,0,1,607.846,506H640v32a4,4,0,0,0,6.5,3.123l7.5-6,7.5,6A4,4,0,0,0,668,538V506h4.152A1.849,1.849,0,0,1,674,507.848v70.3Z" transform="translate(-598 -498)"/>
</svg>
