<svg xmlns="http://www.w3.org/2000/svg" width="48" height="43.688" viewBox="0 0 48 43.688">
  <defs>
    <style>
      .cls-1 {
        fill: #253540;
        fill-rule: evenodd;
      }
    </style>
  </defs>
  <path class="cls-1" d="M549.9,622.375l-22-11.114a1.9,1.9,0,0,0-1.8,0l-22,11.114a1.759,1.759,0,0,0-.5.4l-0.1.1a2.212,2.212,0,0,0-.3.5c0,0.1-.1.1-0.1,0.2a1.735,1.735,0,0,0-.1.707V639.45a2,2,0,1,0,4,0V627.528l3.3,1.717v8.891c0,0.708.4,8.415,1.1,8.819l14.7,7.78c0.3,0.2.6-6.8,0.9-6.8s0.6,6.9.9,6.8l14.7-7.78a1.91,1.91,0,0,0,1.1-1.819V629.245l6.2-3.132a1.91,1.91,0,0,0,1.1-1.819A2.169,2.169,0,0,0,549.9,622.375Zm-10.2,21.448L527,650.491l-12.7-6.668V631.165l11.8,5.961a2.106,2.106,0,0,0,1.8,0l11.8-5.961v12.658ZM527,633.085l-17.5-8.892L527,615.4l17.5,8.891Z" transform="translate(-503 -611.062)"/>
</svg>
