<svg xmlns="http://www.w3.org/2000/svg" width="16.844" height="12.781" viewBox="0 0 16.844 12.781">
  <defs>
    <style>
      .cls-1 {
        fill: #fff;
        fill-rule: evenodd;
      }
    </style>
  </defs>
  <path class="cls-1" d="M758.928,245.6a1.029,1.029,0,0,0-.3-0.739l-1.473-1.458a1.057,1.057,0,0,0-1.483,0l-7.151,7.07-3.177-3.176a1.056,1.056,0,0,0-1.482,0l-1.493,1.468a1.032,1.032,0,0,0,0,1.468l3.934,3.895,1.482,1.468a1.057,1.057,0,0,0,1.483,0l1.482-1.458,7.888-7.789a1.032,1.032,0,0,0,.3-0.739Z" transform="translate(-742.094 -243.125)"/>
</svg>
