<svg xmlns="http://www.w3.org/2000/svg" width="21" height="21" viewBox="0 0 21 21">
  <defs>
    <style>
      .cls-1 {
        fill: #253540;
        fill-rule: evenodd;
      }
    </style>
  </defs>
  <path class="cls-1" d="M739.409,395H721.591A1.6,1.6,0,0,1,720,393.4v-1.264c0-.609,0-2.377,6.7-4.3-1.69-1.873-2.4-4.059-2.4-7.154,0-4.583,3.073-6.651,6.14-6.68l0.065,0c3.088,0,6.205,2.066,6.205,6.682,0,3.095-.714,5.28-2.4,7.154,6.7,1.923,6.7,3.691,6.7,4.3V393.4A1.6,1.6,0,0,1,739.409,395Zm-17.5-1.909h17.183v-0.955c-0.092-.306-1.566-1.555-6.913-2.892a0.954,0.954,0,0,1-.376-1.662c2.183-1.8,2.993-3.669,2.993-6.9,0-3.488-2.18-4.75-4.24-4.772H730.5c-2.077,0-4.295,1.253-4.295,4.771,0,3.232.811,5.1,2.993,6.9a0.955,0.955,0,0,1-.376,1.663c-5.347,1.337-6.821,2.586-6.916,2.919Z" transform="translate(-720 -374)"/>
</svg>
