<svg xmlns="http://www.w3.org/2000/svg" width="22" height="20" viewBox="0 0 22 20">
  <defs>
    <style>
      .cls-1 {
        fill: #253540;
        fill-rule: evenodd;
      }
    </style>
  </defs>
  <path class="cls-1" d="M883.1,379H866.9a2.944,2.944,0,0,0-2.9,2.978v14.045A2.945,2.945,0,0,0,866.9,399H883.1a2.945,2.945,0,0,0,2.9-2.978V381.977A2.944,2.944,0,0,0,883.1,379ZM866.9,380.583H883.1a1.381,1.381,0,0,1,1.355,1.394v2.65H865.541v-2.65A1.381,1.381,0,0,1,866.9,380.583ZM883.1,397.415H866.9a1.38,1.38,0,0,1-1.355-1.393v-9.783h18.917v9.783A1.38,1.38,0,0,1,883.1,397.415Zm-12.142-8.58h-2.843a0.793,0.793,0,0,0,0,1.585h2.843A0.793,0.793,0,0,0,870.961,388.835Zm0,3.689h-2.843a0.793,0.793,0,0,0,0,1.585h2.843A0.793,0.793,0,0,0,870.961,392.524Zm5.473-3.689h-2.869a0.793,0.793,0,0,0,0,1.585h2.842a0.782,0.782,0,0,0,.771-0.792A0.761,0.761,0,0,0,876.434,388.835Zm0,3.689h-2.869a0.793,0.793,0,0,0,0,1.585h2.842a0.782,0.782,0,0,0,.771-0.793A0.76,0.76,0,0,0,876.434,392.524Zm5.446-3.689h-2.842a0.793,0.793,0,0,0,0,1.585h2.842A0.793,0.793,0,0,0,881.88,388.835Zm0,3.689h-2.842a0.793,0.793,0,0,0,0,1.585h2.842A0.793,0.793,0,0,0,881.88,392.524Zm-12.912-11.148a1.2,1.2,0,1,1-1.169,1.2A1.186,1.186,0,0,1,868.968,381.376Zm12.062,0a1.2,1.2,0,1,1-1.169,1.2A1.186,1.186,0,0,1,881.03,381.376Z" transform="translate(-864 -379)"/>
</svg>
