<svg xmlns="http://www.w3.org/2000/svg" width="21" height="21" viewBox="0 0 21 21">
  <defs>
    <style>
      .cls-1 {
        fill: #253540;
        fill-rule: evenodd;
      }
    </style>
  </defs>
  <path class="cls-1" d="M873.5,326A10.5,10.5,0,1,0,884,336.5,10.512,10.512,0,0,0,873.5,326Zm0,19.091a8.591,8.591,0,1,1,8.591-8.591A8.6,8.6,0,0,1,873.5,345.091Zm0-15.273a6.682,6.682,0,1,0,6.682,6.682A6.689,6.689,0,0,0,873.5,329.818Zm0,11.455a4.773,4.773,0,1,1,4.773-4.773A4.778,4.778,0,0,1,873.5,341.273Zm0-7.637a2.864,2.864,0,1,0,2.864,2.864A2.868,2.868,0,0,0,873.5,333.636Zm0,3.819a0.955,0.955,0,1,1,.955-0.955A0.956,0.956,0,0,1,873.5,337.455Z" transform="translate(-863 -326)"/>
</svg>
