<svg xmlns="http://www.w3.org/2000/svg" width="18" height="23" viewBox="0 0 18 23">
  <defs>
    <style>
      .cls-1 {
        fill: #253540;
        fill-rule: evenodd;
      }
    </style>
  </defs>
  <path class="cls-1" d="M871,279.792a4.313,4.313,0,1,0,4.263,4.312A4.292,4.292,0,0,0,871,279.792Zm0,6.708a2.4,2.4,0,1,1,2.368-2.4A2.385,2.385,0,0,1,871,286.5Zm0-11.5a9.018,9.018,0,0,0-9,9.017c0,7.5,8.1,13.546,8.443,13.8a0.941,0.941,0,0,0,1.115,0c0.344-.254,8.442-6.3,8.442-13.8A9.018,9.018,0,0,0,871,275Zm0,20.823c-1.765-1.457-7.105-6.322-7.105-11.806a7.105,7.105,0,0,1,14.21,0C878.105,289.49,872.763,294.364,871,295.823Z" transform="translate(-862 -275)"/>
</svg>
