<svg xmlns="http://www.w3.org/2000/svg" width="25.875" height="24" viewBox="0 0 25.875 24">
  <defs>
    <style>
      .cls-1 {
        fill: #3f98cf;
        fill-rule: evenodd;
      }
    </style>
  </defs>
  <path class="cls-1" d="M214.169,57.984V63.2a4.82,4.82,0,0,1-4.836,4.8H194.82a4.819,4.819,0,0,1-4.836-4.8V48.8A4.819,4.819,0,0,1,194.82,44h14.942l-0.027,2.4H195.619a3.2,3.2,0,0,0-3.216,3.192V62.408a3.2,3.2,0,0,0,3.216,3.192h12.915a3.2,3.2,0,0,0,3.216-3.192V57.984a1.209,1.209,0,0,1,2.418,0h0Zm1.2-10.372a1.623,1.623,0,0,0-2.283,0l-11.4,11.308a1.59,1.59,0,0,0,0,2.266,1.623,1.623,0,0,0,2.283,0l11.4-11.308A1.59,1.59,0,0,0,215.366,47.612ZM209.629,44a1.2,1.2,0,1,1-1.19,1.2A1.2,1.2,0,0,1,209.629,44Z" transform="translate(-189.969 -44)"/>
</svg>
