<svg xmlns="http://www.w3.org/2000/svg" width="96.093" height="97" viewBox="0 0 96.093 97">
  <defs>
    <style>
      .cls-1 {
        fill: #253540;
        stroke: #000;
        stroke-linecap: round;
        stroke-width: 1px;
        fill-rule: evenodd;
      }
    </style>
  </defs>
  <path class="cls-1" d="M540.118,692.466H628.9V703H540.118V692.466Zm66.911-45.937h11.592v39.206H607.029V646.529Zm-28.816,0H590.8v39.206H578.213V646.529Zm-27.815,0h11.591v39.206H550.4V646.529Zm78.814-16.336L587,607.576a5.633,5.633,0,0,0-4.984,0l-42.211,22.617a5.106,5.106,0,0,0-2.648,5.886,5.326,5.326,0,0,0,5.14,4.028H626.72a5.326,5.326,0,0,0,5.14-4.028A5.1,5.1,0,0,0,629.212,630.193Z" transform="translate(-536.469 -606.5)"/>
</svg>
