<svg xmlns="http://www.w3.org/2000/svg" width="22" height="21" viewBox="0 0 22 21">
  <defs>
    <style>
      .cls-1 {
        fill: #253540;
        fill-rule: evenodd;
      }
    </style>
  </defs>
  <path class="cls-1" d="M736,237.2h-4v-2.1a2.054,2.054,0,0,0-2-2.1h-6a2.054,2.054,0,0,0-2,2.1v2.1h-4a2.054,2.054,0,0,0-2,2.1v12.6a2.054,2.054,0,0,0,2,2.1h18a2.054,2.054,0,0,0,2-2.1V239.3A2.054,2.054,0,0,0,736,237.2Zm-4,2.1v12.6H722V239.3h10Zm-8-4.2h6v2.1h-6v-2.1Zm-6,4.2h2v12.6h-2V239.3Zm16,12.6V239.3h2v12.6h-2Z" transform="translate(-716 -233)"/>
</svg>
