<svg xmlns="http://www.w3.org/2000/svg" width="19" height="13"><defs><style>.cls-1 { fill: #fff; fill-rule: evenodd; }</style></defs><path d="M2.17 11.87l5.38-4.6 1.54 1.3a.65.65 0 0 0 .8 0l1.55-1.3 5.38 4.6H2.17zM1.22 1.85L6.65 6.5l-5.43 4.65v-9.3zm15.6-.73L9.5 7.4 2.17 1.13h14.66zm.96 10.03L12.35 6.5l5.43-4.65v9.3zM18.98.48a.55.55 0 0 0-.03-.12.56.56 0 0 0-.07-.12.45.45 0 0 0-.04-.06.66.66 0 0 0-.14-.1.52.52 0 0 0-.07-.04.43.43 0 0 0-.1-.02.53.53 0 0 0-.13-.02H.6a.62.62 0 0 0-.15.03.6.6 0 0 0-.08.02A.53.53 0 0 0 .3.1a.6.6 0 0 0-.12.07.44.44 0 0 0-.06.08.56.56 0 0 0-.07.1.55.55 0 0 0-.03.13.44.44 0 0 0-.02.08v11.88a.46.46 0 0 0 .02.08.54.54 0 0 0 .03.12.6.6 0 0 0 .07.1.55.55 0 0 0 .05.08.6.6 0 0 0 .2.12s0 0 0 .02A.68.68 0 0 0 .6 13h17.8a.67.67 0 0 0 .23-.04s0 0 .02-.02a.63.63 0 0 0 .18-.1s0 0 0-.02a.56.56 0 0 0 .05-.07.6.6 0 0 0 .08-.1.54.54 0 0 0 .02-.13.57.57 0 0 0 .02-.08V.56a.53.53 0 0 0-.02-.08z" class="cls-1"/></svg>