<svg xmlns="http://www.w3.org/2000/svg" width="5" height="12"><defs><style>.cls-1 { fill: #fff; fill-rule: evenodd; }</style></defs><path d="M4.85 10.7l-.16.7q-.72.3-1.14.44a2.84 2.84 0 0 1-1 .16 1.9 1.9 0 0 1-1.33-.45 1.48 1.48 0 0 1-.47-1.13 4.26 4.26 0 0 1 .03-.54c0-.2.05-.4.1-.63l.6-2.22q.08-.32.13-.6a2.82 2.82 0 0 0 .06-.53.84.84 0 0 0-.18-.6.9.9 0 0 0-.63-.16 1.58 1.58 0 0 0-.5.07c-.15.06-.3.1-.4.16l.16-.7q.58-.24 1.1-.42a3.16 3.16 0 0 1 1.02-.18 1.85 1.85 0 0 1 1.32.44 1.5 1.5 0 0 1 .46 1.14c0 .1 0 .27-.03.5a3.64 3.64 0 0 1-.12.68l-.58 2.22q-.07.27-.13.6a3.33 3.33 0 0 0-.06.53.78.78 0 0 0 .18.6 1 1 0 0 0 .65.16 1.77 1.77 0 0 0 .5-.08 2.5 2.5 0 0 0 .38-.14zM5 1.4a1.33 1.33 0 0 1-.4 1 1.36 1.36 0 0 1-1 .4 1.38 1.38 0 0 1-1-.4 1.33 1.33 0 0 1-.42-1 1.34 1.34 0 0 1 .4-1 1.42 1.42 0 0 1 2 0 1.34 1.34 0 0 1 .42 1z" class="cls-1"/></svg>