<svg xmlns="http://www.w3.org/2000/svg" width="22" height="18"><defs><style>.cls-1 { fill: #a5a5a5; fill-rule: evenodd; }</style></defs><path id="Guide" d="M21.43 0h-6.67C12.58 0 11.52.52 11 1.06 10.48.52 9.42 0 7.24 0H.57A.58.58 0 0 0 0 .58v15.94a.58.58 0 0 0 .57.58h6.67a6.32 6.32 0 0 1 2.82.68.65.65 0 0 0 .58.2h.77a.54.54 0 0 0 .57-.26 7.1 7.1 0 0 1 2.8-.62h6.66a.58.58 0 0 0 .57-.58V.6a.58.58 0 0 0-.57-.6zm-11.3 2.12v14.6a6.46 6.46 0 0 0-2.87-.7h-6.1V1.08h6.1c3.2 0 2.88 1.04 2.88 1.04zm3.13 3.28h5.1v.7h-5.1v-.7zm5.1 6.33h-5.1v-.7h5.1v.7zm0-1.4h-5.1v-.7h5.1v.7zm0-1.4h-5.1v-.7h5.1v.7zm0-1.42h-5.1v-.7h5.1v.7zm-15.3.7h5.07v.7H3.05v-.7zm2.2-2.8h2.87v.7H5.27v-.7zm-2.2 1.4h5.07v.7H3.05v-.7zm0 2.82h5.07v.7H3.05v-.7zm0 1.4h5.07v.7H3.05v-.7z" class="cls-1"/></svg>