<svg xmlns="http://www.w3.org/2000/svg" viewBox="0 0 126.8 24" enable-background="new 0 0 126.8 24"><g><path d="M32.9 18.5h2.2v-4.6c-.1-.9.1-1.7.5-2.5.4-.5 1-.8 1.6-.7.5 0 1 .1 1.3.5.3.5.4 1.1.4 1.6v5.6h2.2v-5.8c.1-1-.2-2.1-.8-2.9-.7-.7-1.6-1.1-2.6-1-1 0-1.9.4-2.6 1.1V2h-2.2v16.5zm19.6-4.8c.1-1.3-.3-2.7-1.2-3.7-1.9-1.8-4.8-1.8-6.7 0-.9 1-1.3 2.3-1.2 3.7-.1 1.3.4 2.7 1.3 3.7.9.9 2.1 1.4 3.4 1.4.5 0 .9 0 1.4-.1.4-.1.8-.3 1.2-.5s.7-.5 1-.9.6-.8.9-1.2l-1.8-1c-.3.5-.7 1-1.2 1.4-.4.3-.9.4-1.3.4-.6 0-1.3-.2-1.7-.7-.5-.5-.7-1.2-.8-1.9h6.8l-.1-.6zm-6.7-1.2c.1-.3.2-.5.3-.7s.3-.4.5-.6c.2-.2.4-.3.7-.4.2-.1.5-.1.8-.1 1.1-.1 2 .7 2.2 1.8h-4.5zm16-2.4c-.8-.9-1.8-1.4-3-1.4s-2.4.5-3.2 1.4c-.9 1-1.3 2.3-1.3 3.6s.4 2.6 1.3 3.6c1.5 1.7 4.2 1.9 6 .4.1-.1.1-.1.2-.2v1H64V9h-2.2v1.1zm-4.5 1.5c.5-.6 1.2-.9 1.9-.9s1.5.3 2 .9c1 1.3 1 3.1 0 4.4-.5.6-1.2.9-2 .9-.7 0-1.4-.3-1.9-.9s-.8-1.4-.7-2.2c-.1-.8.2-1.6.7-2.2zm16.4-1.5c-1.5-1.7-4.1-1.8-5.8-.3-.1.1-.3.3-.4.4-.9 1-1.3 2.2-1.3 3.6 0 1.3.4 2.6 1.3 3.6.8.9 2 1.4 3.2 1.4 1.1 0 2.2-.5 2.9-1.3v1h2.2V2h-2.2v8.1h.1zm-4.5 1.5c.5-.6 1.2-.9 1.9-.9s1.5.3 2 .9c1 1.3 1 3.1 0 4.4-.5.6-1.2.9-2 .9-.7 0-1.4-.3-1.9-.9s-.8-1.4-.7-2.2c0-.9.3-1.6.7-2.2zm9.5 6.9h2.2v-4.9c0-1.8.6-2.7 1.8-2.7.4 0 .9.2 1.2.4l1-2c-.5-.3-1.2-.5-1.8-.6-.4 0-.8.1-1.1.2-.4.2-.8.5-1.1.9V9h-2.2v9.5zm15.9-4.7c.1-1.3-.4-2.7-1.2-3.7-1.9-1.8-4.8-1.8-6.7 0-.9 1-1.3 2.3-1.2 3.7-.1 1.3.4 2.7 1.3 3.7.9.9 2.1 1.4 3.4 1.4.5 0 .9 0 1.4-.2.4-.1.8-.3 1.2-.5.4-.2.7-.5 1-.9s.6-.8.9-1.2l-1.8-1c-.3.5-.7 1-1.2 1.4-.4.3-.9.4-1.3.4-.6 0-1.3-.2-1.7-.7-.5-.5-.7-1.2-.8-1.9h6.8v-.5h-.1zm-6.7-1.3c.1-.3.2-.5.3-.7.1-.2.3-.4.5-.6.2-.2.4-.3.6-.4.2-.1.5-.1.8-.1 1.1-.1 2 .7 2.2 1.8h-4.4zm16-2.4c-.8-.9-1.8-1.4-3-1.4s-2.4.5-3.2 1.4c-.9 1-1.3 2.3-1.3 3.6s.4 2.6 1.3 3.6c1.5 1.7 4.2 1.9 6 .4.1-.1.2-.1.2-.2v1h2.2V9h-2.2v1.1zm-4.5 1.5c.5-.6 1.2-.9 1.9-.9s1.5.3 1.9.9c1 1.3 1 3.1 0 4.4-.5.6-1.2.9-2 .9-.7 0-1.4-.3-1.9-.9s-.8-1.4-.7-2.2c0-.9.3-1.6.8-2.2zm14.1-2.9c-1.4 0-2.7.5-3.7 1.5-1 .9-1.5 2.2-1.5 3.6 0 1.3.5 2.6 1.5 3.6 1 .9 2.3 1.5 3.7 1.4.9 0 1.8-.3 2.7-.7v-2.9c-.4.5-.8.9-1.4 1.3-.4.2-.9.4-1.4.3-.8 0-1.5-.3-2-.9s-.8-1.4-.8-2.2.3-1.6.8-2.2c.5-.6 1.3-.9 2.1-.9.5 0 .9.1 1.4.4.5.3 1 .8 1.3 1.3v-3c-.8-.3-1.7-.6-2.7-.6zm5.1 9.8h2.2v-4.6c-.1-.9.1-1.7.4-2.5.4-.5 1-.8 1.6-.7.5 0 1 .1 1.3.5.3.5.5 1.1.4 1.6v5.6h2.2v-5.8c.1-1-.2-2.1-.8-2.9-.7-.7-1.6-1.1-2.6-1.1s-1.9.4-2.6 1.1V2h-2.2l.1 16.5z"/><path d="M20.8 12c0-.4.3-.8.8-.8H24C23.6 4.5 19.5.4 12.7 0v2.4c0 .4-.3.8-.8.8s-.8-.3-.8-.8V0C4.5.4.4 4.5 0 11.2h2.4c.4 0 .8.3.8.8s-.3.8-.8.8H0C.4 19.5 4.5 23.6 11.2 24v-2.4c0-.4.3-.8.8-.8s.8.3.8.8V24c6.8-.4 10.9-4.5 11.3-11.3h-2.4c-.5.1-.8-.3-.9-.7zM12 19.2c-4 0-7.2-3.2-7.2-7.2S8 4.8 12 4.8 19.2 8 19.2 12 16 19.2 12 19.2zm0-12.8c-3.1 0-5.6 2.5-5.6 5.6s2.5 5.6 5.6 5.6 5.6-2.5 5.6-5.6-2.5-5.6-5.6-5.6zm0 8c-1.3 0-2.4-1.1-2.4-2.4s1.1-2.4 2.4-2.4 2.4 1.1 2.4 2.4-1.1 2.4-2.4 2.4z"/></g></svg>