<svg xmlns="http://www.w3.org/2000/svg" width="14" height="11"><defs><style>.cls-1 { fill: #333; fill-rule: evenodd; }</style></defs><path id="_" d="M13.98 9.5a.5.5 0 0 0-.5-.5h-13a.5.5 0 0 0-.5.5v1a.5.5 0 0 0 .5.5h13a.5.5 0 0 0 .5-.5v-1zm0-3a.5.5 0 0 0-.5-.5h-13a.5.5 0 0 0-.5.5v1a.5.5 0 0 0 .5.5h13a.5.5 0 0 0 .5-.5v-1zm0-3a.5.5 0 0 0-.5-.5h-13a.5.5 0 0 0-.5.5v1a.5.5 0 0 0 .5.5h13a.5.5 0 0 0 .5-.5v-1zm0-3a.5.5 0 0 0-.5-.5h-13a.5.5 0 0 0-.5.5v1a.5.5 0 0 0 .5.5h13a.5.5 0 0 0 .5-.5v-1z" class="cls-1"/></svg>