<svg xmlns="http://www.w3.org/2000/svg" width="16" height="15.094"><defs><style>.cls-1 { fill: #999; fill-rule: evenodd; }</style></defs><path id="_" d="M16 7.56a1.77 1.77 0 0 0-1.78-1.78 1.75 1.75 0 0 0-1.27.54A8.65 8.65 0 0 0 8.32 4.9L9.24.68l2.98.66a1.33 1.33 0 1 0 .15-.6L9.07 0a.3.3 0 0 0-.36.25L7.68 4.9a8.6 8.6 0 0 0-4.6 1.44A1.77 1.77 0 0 0 0 7.56a1.8 1.8 0 0 0 1 1.6 3.7 3.7 0 0 0-.1.84c0 2.82 3.2 5.1 7.12 5.1s7.1-2.28 7.1-5.1a3.4 3.4 0 0 0-.1-.85 1.77 1.77 0 0 0 .98-1.6zM3.73 9.33a1.33 1.33 0 1 1 1.33 1.34 1.33 1.33 0 0 1-1.33-1.34zm7.23 3.17a4.6 4.6 0 0 1-2.96.9 4.6 4.6 0 0 1-2.96-.9.32.32 0 0 1 0-.46.32.32 0 0 1 .45 0 3.9 3.9 0 0 0 2.5.73 3.9 3.9 0 0 0 2.5-.73.32.32 0 0 1 .46 0 .32.32 0 0 1 0 .46zm-.02-1.83a1.33 1.33 0 1 1 1.33-1.34 1.34 1.34 0 0 1-1.33 1.34z" class="cls-1"/></svg>