<svg xmlns="http://www.w3.org/2000/svg" viewBox="0 0 16 15.1"><defs><style>.a{fill:#3a92d4;}</style></defs><title>reddit-blue</title><path d="M16 7.56a1.78 1.78 0 0 0-1.77-1.78 1.75 1.75 0 0 0-1.28.54A8.65 8.65 0 0 0 8.3 4.9L9.25.68l3 .66a1.33 1.33 0 1 0 .13-.6L9.07 0a.3.3 0 0 0-.37.23l-1 4.65a8.6 8.6 0 0 0-4.6 1.45A1.78 1.78 0 1 0 1 9.16a3.7 3.7 0 0 0-.1.84c0 2.82 3.2 5.1 7.1 5.1s7.1-2.28 7.1-5.1a3.4 3.4 0 0 0-.1-.86 1.78 1.78 0 0 0 1-1.58zM3.74 9.33a1.33 1.33 0 1 1 1.33 1.34 1.33 1.33 0 0 1-1.34-1.33zM11 12.5a4.6 4.6 0 0 1-3 .9 4.6 4.6 0 0 1-3-.9.32.32 0 0 1 0-.45.32.32 0 0 1 .46 0 3.9 3.9 0 0 0 2.54.72 3.9 3.9 0 0 0 2.5-.77.32.32 0 0 1 .5 0 .32.32 0 0 1 0 .45zm0-1.83a1.34 1.34 0 1 1 1.33-1.34A1.34 1.34 0 0 1 11 10.67z" class="a"/></svg>