<svg xmlns="http://www.w3.org/2000/svg" width="5" height="11.844"><defs><style>.cls-1 { fill: #fff; fill-rule: evenodd; }</style></defs><path d="M4.85 10.56l-.16.68q-.72.3-1.15.45a2.88 2.88 0 0 1-.98.14 1.9 1.9 0 0 1-1.34-.44 1.46 1.46 0 0 1-.48-1.12 4.23 4.23 0 0 1 .04-.53c0-.2.05-.4.1-.63l.6-2.2c.05-.2.1-.4.13-.6a2.7 2.7 0 0 0 .05-.5.83.83 0 0 0-.16-.6.9.9 0 0 0-.64-.16 1.6 1.6 0 0 0-.47.07c-.15.05-.3.1-.4.15l.16-.68q.58-.25 1.1-.43A3.2 3.2 0 0 1 2.3 4a1.86 1.86 0 0 1 1.32.43 1.47 1.47 0 0 1 .46 1.13c0 .1 0 .26-.03.5a3.45 3.45 0 0 1-.12.66l-.58 2.2q-.07.25-.13.6a3.26 3.26 0 0 0-.07.5.76.76 0 0 0 .2.6 1 1 0 0 0 .63.15 1.8 1.8 0 0 0 .5-.08 2.55 2.55 0 0 0 .4-.14zM5 1.36a1.3 1.3 0 0 1-.42.98 1.43 1.43 0 0 1-2 0 1.3 1.3 0 0 1-.4-.97 1.32 1.32 0 0 1 .4-.98 1.43 1.43 0 0 1 2 0 1.32 1.32 0 0 1 .42.97z" class="cls-1"/></svg>