<svg xmlns="http://www.w3.org/2000/svg" width="595.969" height="116.156"><defs><style>.cls-1 { fill: #3d444a; fill-rule: evenodd; }</style></defs><path d="M67.1 79.8a41.63 41.63 0 0 0 19.85-29.07h-13.6a31.37 31.37 0 0 1-29.33 22.85 30.16 30.16 0 0 1-29.34-22.85H1.05A41.63 41.63 0 0 0 20.97 79.8 41.85 41.85 0 0 0 0 116.17h13.64a30.43 30.43 0 0 1 60.72 0H88A41.85 41.85 0 0 0 67.14 79.8h-.04zM44 12.3a30.16 30.16 0 0 1 29.3 22.85h13.6a43.8 43.8 0 0 0-85.87 0h13.6A32.4 32.4 0 0 1 44.02 12.3h-.04zm0 12.46a17.66 17.66 0 1 1-17.84 17.62 17.68 17.68 0 0 1 17.84-17.62zM164.43 98.5h-11.46V64.23c0-6.23-2.1-10.38-8.42-10.38a23.4 23.4 0 0 0-13.63 5.2V98.5h-11.46V20.6h11.5v30.13a24.77 24.77 0 0 1 17.92-6.23c11.46 0 16.67 6.23 16.67 18.7v35.3h-1.12zm9.42-27c0-19.77 11.5-28.08 26.17-28.08 15.72 0 22 9.3 22 23.9v7.3h-34.58c0 11.42 5.25 15.58 13.63 15.58 7.33 0 9.42-3.12 11.54-8.3l10.43 2.07c-2.08 10.38-10.42 15.62-21.97 15.62-20.96 0-27.2-13.5-27.2-28.05v-.05zm35.63-5.2c0-9.34-3.12-13.5-10.42-13.5-6.33 0-11.58 3.13-12.62 13.5h23.04zm63.9 20.78c0 3.12 0 4.16 3.08 4.16a3.88 3.88 0 0 0 3.17-1.04v7.27a19.85 19.85 0 0 1-8.34 2.07 8.42 8.42 0 0 1-9.47-6.23 20.7 20.7 0 0 1-16.75 6.24c-13.6 0-15.67-9.34-15.67-14.54 0-13.5 11.5-18.7 26.18-18.7h5.25v-4.14c0-6.24-1.04-10.4-9.46-10.4-6.25 0-8.34 3.13-9.38 8.32L231.56 58c2.1-10.38 8.34-15.58 20.93-15.58 13.58 0 19.88 5.2 19.88 18.7v25.96h1zm-11.55-11.42h-5.25c-6.25 0-14.67 1.04-14.67 8.3 0 4.16 2.1 7.28 8.35 7.28a13.56 13.56 0 0 0 11.58-5.2V75.66zM333.1 98.5h-10.5l-1.04-5.2a22.22 22.22 0 0 1-16.75 6.24c-12.58 0-20.96-7.27-20.96-27 0-20.77 11.55-29.08 23.05-29.08a22.27 22.27 0 0 1 14.66 4.16V19.5h11.5v79h.04zM321.52 58a16.83 16.83 0 0 0-11.5-4.15c-9.47 0-12.63 7.27-12.63 18.7s3.15 17.65 12.57 17.65a19.42 19.42 0 0 0 12.5-5.2V58h-.96zm55.5-2.07a23.94 23.94 0 0 0-18.83 5.2V98.5h-11.55v-54h10.5l1.04 8.3a19.44 19.44 0 0 1 17.8-9.38h2.07v12.46h-1.04v.04zm4.18 15.58c0-19.73 11.54-28.03 26.26-28.03 15.67 0 21.96 9.34 21.96 23.88v7.27h-34.6c0 11.43 5.26 15.58 13.64 15.58 7.37 0 9.46-3.1 11.54-8.3l10.5 2.07c-2.08 10.4-10.54 15.62-22.1 15.62-21.95 0-27.16-13.5-27.16-28.05zm34.6-5.2c0-9.33-3.13-13.5-10.43-13.5-6.33 0-11.58 3.13-12.63 13.5h23.05zm63.9 20.8c0 3.1 0 4.14 3.1 4.14A3.88 3.88 0 0 0 486 90.2v7.27a19.85 19.85 0 0 1-8.34 2.08 8.42 8.42 0 0 1-9.42-6.23 20.7 20.7 0 0 1-16.75 6.23c-13.63 0-15.7-9.35-15.7-14.54 0-13.5 11.5-18.7 26.16-18.7h5.2v-4.14c0-6.24-1.03-10.4-9.4-10.4-6.26 0-8.34 3.13-9.43 8.32L437.88 58c2.1-10.38 8.34-15.58 20.84-15.58 13.67 0 20 5.2 20 18.7v25.96h.96zm-11.52-11.44h-5.25c-6.25 0-14.67 1.04-14.67 8.3 0 4.16 2.08 7.28 8.34 7.28a13.56 13.56 0 0 0 11.58-5.2V75.66zm21.97-3.12c0-18.7 9.5-29.08 27.3-29.08a19.98 19.98 0 0 1 20.9 19q0 .36.02.73l-11.5 1.03c-1-7.32-4.17-11.47-10.42-11.47-7.34 0-13.63 3.12-13.63 17.7s6.25 18.7 13.63 18.7a10.66 10.66 0 0 0 11.47-9.77q.02-.32.03-.63l10.42 2.08a21.66 21.66 0 0 1-23 18.7c-17.8 0-25.14-11.4-25.14-27h-.08zM594.93 98.5h-11.5V64.24c0-6.23-2.1-10.38-8.34-10.38a23.4 23.4 0 0 0-13.68 5.2V98.5h-11.5V20.6h11.5v30.13a24.76 24.76 0 0 1 17.8-6.23c11.54 0 16.75 6.23 16.75 18.7v35.3h-1.04z" class="cls-1"/></svg>