<svg xmlns="http://www.w3.org/2000/svg" width="143" height="28"><defs><style>.cls-1 { fill: #fff; fill-rule: evenodd; }</style></defs><path id="Logo" d="M16.1 19.25a10.03 10.03 0 0 0 4.76-7H17.6a7.53 7.53 0 0 1-7.04 5.5 7.24 7.24 0 0 1-7.04-5.5H.25a10.03 10.03 0 0 0 4.78 7A10.08 10.08 0 0 0 0 28h3.27a7.3 7.3 0 0 1 14.57 0h3.27a10.08 10.08 0 0 0-5-8.75zM10.55 3a7.24 7.24 0 0 1 7.03 5.5h3.26a10.5 10.5 0 0 0-20.6 0H3.5A7.78 7.78 0 0 1 10.56 3zm0 3a4.25 4.25 0 1 1-4.28 4.24A4.26 4.26 0 0 1 10.57 6zm28.9 17.75H36.7V15.5c0-1.5-.5-2.5-2.02-2.5a5.6 5.6 0 0 0-3.27 1.25v9.5h-2.74V5h2.76v7.25a5.93 5.93 0 0 1 4.3-1.5c2.75 0 4 1.5 4 4.5v8.5h-.24zm2.26-6.5c0-4.76 2.77-6.76 6.3-6.76 3.76 0 5.27 2.23 5.27 5.74V18h-8.3c0 2.75 1.26 3.75 3.27 3.75 1.76 0 2.26-.75 2.77-2l2.5.5C53 22.75 51 24 48.25 24c-5.03 0-6.53-3.24-6.53-6.74zM50.27 16c0-2.25-.75-3.25-2.5-3.25-1.52 0-2.78.75-3.03 3.25h5.53zm15.33 5c0 .75 0 1 .73 1a.93.93 0 0 0 .76-.25v1.75a4.75 4.75 0 0 1-2 .5 2.02 2.02 0 0 1-2.28-1.5A4.96 4.96 0 0 1 58.8 24c-3.26 0-3.76-2.25-3.76-3.5 0-3.25 2.76-4.5 6.28-4.5h1.26v-1c0-1.5-.25-2.5-2.27-2.5-1.5 0-2 .75-2.24 2l-2.5-.5c.5-2.5 2-3.75 5.02-3.75 3.26 0 4.77 1.25 4.77 4.5V21h.25zm-2.78-2.75h-1.26c-1.5 0-3.52.25-3.52 2 0 1 .5 1.75 2 1.75a3.25 3.25 0 0 0 2.78-1.25v-2.5zm17.1 5.5H77.4l-.25-1.25a5.32 5.32 0 0 1-4.02 1.5c-3.02 0-5.03-1.75-5.03-6.5 0-5 2.77-7 5.53-7a5.33 5.33 0 0 1 3.52 1V4.73h2.76v19.02zM77.14 14a4.03 4.03 0 0 0-2.76-1c-2.27 0-3.03 1.75-3.03 4.5s.76 4.25 3.02 4.25a4.65 4.65 0 0 0 3-1.25V14h-.25zm13.32-.5a5.73 5.73 0 0 0-4.52 1.25v9h-2.77v-13h2.52l.24 2a4.66 4.66 0 0 1 4.27-2.26h.5v3h-.24zm1 3.75c0-4.75 2.77-6.75 6.3-6.75 3.76 0 5.27 2.25 5.27 5.75V18h-8.3c0 2.75 1.26 3.75 3.27 3.75 1.77 0 2.27-.75 2.77-2l2.52.5c-.5 2.5-2.54 3.76-5.3 3.76-5.28 0-6.53-3.24-6.53-6.74zm8.3-1.25c0-2.25-.75-3.25-2.5-3.25-1.52 0-2.78.75-3.03 3.25h5.53zm15.33 5c0 .75 0 1 .74 1a.93.93 0 0 0 .76-.25v1.75a4.75 4.75 0 0 1-2 .5 2.02 2.02 0 0 1-2.26-1.5 4.96 4.96 0 0 1-4.02 1.5c-3.27 0-3.77-2.25-3.77-3.5 0-3.25 2.76-4.5 6.28-4.5h1.25v-1c0-1.5-.25-2.5-2.26-2.5-1.5 0-2 .75-2.26 2l-2.5-.5c.5-2.5 2-3.75 5-3.75 3.28 0 4.8 1.25 4.8 4.5V21h.24zm-2.77-2.75h-1.26c-1.5 0-3.52.25-3.52 2 0 1 .5 1.75 2 1.75a3.25 3.25 0 0 0 2.78-1.25v-2.5zm5.27-.75c0-4.5 2.28-7 6.55-7a4.8 4.8 0 0 1 5.02 4.75l-2.76.25c-.23-1.76-1-2.76-2.5-2.76-1.75 0-3.26.75-3.26 4.26s1.5 4.5 3.27 4.5a2.56 2.56 0 0 0 2.77-2.5l2.5.5a5.2 5.2 0 0 1-5.52 4.5c-4.27 0-6.03-2.74-6.03-6.5zm25.14 6.25h-2.76V15.5c0-1.5-.5-2.5-2-2.5a5.6 5.6 0 0 0-3.28 1.25v9.5h-2.76V5h2.76v7.25a5.93 5.93 0 0 1 4.27-1.5c2.77 0 4.02 1.5 4.02 4.5v8.5h-.27z" class="cls-1"/></svg>