<svg xmlns="http://www.w3.org/2000/svg" width="57" height="57"><defs><style>.cls-1 { fill: #b5b086; } .cls-2 { fill: #fff; fill-rule: evenodd; }</style></defs><rect id="Rounded_Rectangle_10" width="57" height="57" class="cls-1" rx="3" ry="3"/><path d="M42.94 11H14.06A2.06 2.06 0 0 0 12 13.06v28.88A2.06 2.06 0 0 0 14.06 44h28.88A2.06 2.06 0 0 0 45 41.94V13.06A2.06 2.06 0 0 0 42.94 11zm-27.82 3.1a1.02 1.02 0 1 1 2.04 0 1.02 1.02 0 1 1-2.04 0zm26.8 25.77H15.2V18.35h26.7v21.52zm-1.04-24.74H19.22a1.03 1.03 0 0 1 0-2.07h21.66a1.03 1.03 0 0 1 0 2.07z" class="cls-2"/></svg>