<svg xmlns="http://www.w3.org/2000/svg" width="57" height="57"><defs><style>.cls-1 { fill: #55acee; } .cls-2 { fill: #fff; fill-rule: evenodd; }</style></defs><rect id="Rounded_Rectangle_10" width="57" height="57" class="cls-1" rx="3" ry="3"/><path d="M48 16.43a14.7 14.7 0 0 1-4.24 1.16A7.46 7.46 0 0 0 47 13.53a15.17 15.17 0 0 1-4.68 1.77 7.43 7.43 0 0 0-5.4-2.3 7.36 7.36 0 0 0-7.38 7.32 7.13 7.13 0 0 0 .2 1.67 21.03 21.03 0 0 1-15.23-7.66 7.2 7.2 0 0 0-1 3.68 7.3 7.3 0 0 0 3.3 6.1 7.24 7.24 0 0 1-3.35-.92v.1a7.33 7.33 0 0 0 5.92 7.17 7.34 7.34 0 0 1-1.95.26 7.2 7.2 0 0 1-1.4-.14 7.4 7.4 0 0 0 6.9 5.08 14.9 14.9 0 0 1-9.16 3.13 14.72 14.72 0 0 1-1.76-.1A21.02 21.02 0 0 0 23.32 42c13.6 0 21.02-11.16 21.02-20.83 0-.32 0-.63-.03-.95a14.77 14.77 0 0 0 3.7-3.8z" class="cls-2"/></svg>