<svg xmlns="http://www.w3.org/2000/svg" width="70" height="71.031"><defs><style>.cls-1 { fill: #bbb1a4; fill-rule: evenodd; }</style></defs><path id="Arrow" d="M69.37 56c-3.37 2.55-6.8 5.04-10.1 7.68-2.8 2.25-5.52 4.65-8.24 7.02a.7.7 0 0 1-1.2-.05 8.23 8.23 0 0 0-1.05-.98.6.6 0 0 1-.3-.44.73.73 0 0 1 .27-.47q5.08-5.34 10.14-10.7c.17-.18.35-.37.52-.55 0-.02-.02-.05-.04-.08l-.03-.07c-.26 0-.52 0-.78 0-2.1-.03-4.18-.03-6.27-.1a57.24 57.24 0 0 1-14.6-2.4A51 51 0 0 1 9.3 34.08a54.03 54.03 0 0 1-8.38-21.1A66.47 66.47 0 0 1 0 .78.64.64 0 0 1 .75 0c.55.03 1.1 0 1.65 0 .86 0 .97 0 .98.67 0 .1 0 .2 0 .33a58.2 58.2 0 0 0 1.46 14.1 49.32 49.32 0 0 0 11.8 22.6 48.8 48.8 0 0 0 27.08 14.84 72.97 72.97 0 0 0 15.3 1.1 3.18 3.18 0 0 0 .43-.07c-.13-.16-.2-.27-.28-.36q-4.8-5.05-9.6-10.1c-1.25-1.34-1.26-1.33.08-2.58.9-.83.72-.8 1.6-.02a209.67 209.67 0 0 0 18.1 14.47c.22.14.4.32.65.53-.26.2-.45.36-.63.5z" class="cls-1"/></svg>