<svg xmlns="http://www.w3.org/2000/svg" width="14.87" height="13.687"><defs><style>.cls-1 { fill: #fff; fill-rule: evenodd; }</style></defs><path id="_" d="M11.43 11.98a.57.57 0 1 1-.57-.57.57.57 0 0 1 .57.6zm2.28 0a.57.57 0 0 1-.55.58.57.57 0 0 1 0-1.15.57.57 0 0 1 .57.6zm1.17-2a.86.86 0 0 0-.86-.85H9.87l-1.22 1.2a1.72 1.72 0 0 1-1.2.5 1.73 1.73 0 0 1-1.22-.5l-1.2-1.2H.85a.86.86 0 0 0-.86.85v2.86a.86.86 0 0 0 .85.86H14a.86.86 0 0 0 .86-.86V10zm-2.9-5.08a.6.6 0 0 0-.53-.34h-2.3v-4A.57.57 0 0 0 8.58 0H6.3a.58.58 0 0 0-.58.56v4h-2.3a.57.57 0 0 0-.4.97l4 4a.55.55 0 0 0 .4.17.54.54 0 0 0 .4-.17l4-4a.56.56 0 0 0 .14-.62z" class="cls-1"/></svg>