<svg xmlns="http://www.w3.org/2000/svg" viewBox="0 0 13 11"><defs><style>.a{fill:#3a92d4;}</style></defs><title>mentions-blue</title><path d="M6 1.5A1.5 1.5 0 0 0 4.5 0h-3A1.5 1.5 0 0 0 0 1.5v3A1.5 1.5 0 0 0 1.5 6h1.75a.75.75 0 0 1 .76.75V7a2 2 0 0 1-2 2h-.5a.5.5 0 0 0-.5.5v1a.5.5 0 0 0 .5.5H2a4 4 0 0 0 4-4V1.5zm7 0A1.5 1.5 0 0 0 11.5 0h-3A1.5 1.5 0 0 0 7 1.5v3A1.5 1.5 0 0 0 8.5 6h1.75a.75.75 0 0 1 .75.76V7a2 2 0 0 1-2 2h-.5a.5.5 0 0 0-.5.5v1a.5.5 0 0 0 .5.5H9a4 4 0 0 0 4-4V1.5z" class="a"/></svg>