<svg xmlns="http://www.w3.org/2000/svg" viewBox="0 0 11.43 14.85"><defs><style>.a{fill:#3a92d4;}</style></defs><title>pinterest-blue</title><path d="M0 5.32C0 6.5.47 8.2 1.75 8.58h.15a1.28 1.28 0 0 0 .46-1.05 4.9 4.9 0 0 1-.7-2 4 4 0 0 1 4-4.1h.18c2 0 3.53 1.16 3.53 3.28 0 1.6-.63 4.55-2.7 4.55A1.32 1.32 0 0 1 5.3 8c0-1.13.8-2.22.8-3.38a1.15 1.15 0 0 0-1-1.27h-.17a1.94 1.94 0 0 0-1.64 2 3.5 3.5 0 0 0 .28 1.5 32.56 32.56 0 0 0-1.25 6.23c0 .56.08 1.12.13 1.68l.08.1h.13c1.5-2.06 1.45-2.47 2.12-5.15a2.4 2.4 0 0 0 2.05 1.08c3.16 0 4.58-3.08 4.58-5.86 0-3-2.55-4.88-5.36-4.88C3 0 0 2 0 5.32z" class="a"/></svg>