<svg xmlns="http://www.w3.org/2000/svg" width="11.438" height="14.844"><defs><style>.cls-1 { fill: #999; fill-rule: evenodd; }</style></defs><path id="_" d="M0 5.33C0 6.5.48 8.2 1.76 8.6a.9.9 0 0 0 .15.02 1.28 1.28 0 0 0 .46-1.05 4.9 4.9 0 0 1-.7-2.02 4.02 4.02 0 0 1 4.18-4.1c2.02 0 3.52 1.16 3.52 3.28 0 1.58-.63 4.54-2.7 4.54a1.32 1.32 0 0 1-1.36-1.3c0-1.12.8-2.2.8-3.37a1.15 1.15 0 0 0-1.17-1.28A1.94 1.94 0 0 0 3.3 5.36a3.5 3.5 0 0 0 .28 1.5 32.56 32.56 0 0 0-1.25 6.23c0 .56.08 1.1.13 1.67l.08.1.13-.05c1.5-2.06 1.44-2.46 2.12-5.14a2.4 2.4 0 0 0 2.05 1.07c3.16 0 4.58-3.08 4.58-5.86 0-2.96-2.55-4.9-5.35-4.9C3.02 0 0 2.05 0 5.34z" class="cls-1"/></svg>