<svg xmlns="http://www.w3.org/2000/svg" viewBox="0 0 13.71 16"><defs><style>.a{fill:#3a92d4;}</style></defs><title>posts-blue</title><path d="M13.1 4.25L9.45.6a2 2 0 0 0-.32-.24v4.2h4.22a1.9 1.9 0 0 0-.25-.3zM8.85 5.72A.86.86 0 0 1 8 4.86V0H.86A.86.86 0 0 0 0 .86v14.28a.86.86 0 0 0 .85.86h12a.86.86 0 0 0 .86-.86V5.72H8.86zm1.43 6.57a.28.28 0 0 1-.28.28H3.7a.28.28 0 0 1-.28-.28v-.58a.28.28 0 0 1 .28-.3H10a.28.28 0 0 1 .3.3v.56zm0-2.3a.28.28 0 0 1-.28.3H3.7a.28.28 0 0 1-.28-.3v-.57a.28.28 0 0 1 .28-.3H10a.28.28 0 0 1 .3.3V10zm0-2.3A.28.28 0 0 1 10 8H3.7a.28.28 0 0 1-.28-.28v-.58a.28.28 0 0 1 .28-.3H10a.28.28 0 0 1 .3.3v.58z" class="a"/></svg>