<svg xmlns="http://www.w3.org/2000/svg" width="13.688" height="16"><defs><style>.cls-1 { fill: #999; fill-rule: evenodd; }</style></defs><path id="_" d="M13.1 4.25L9.43.6a1.95 1.95 0 0 0-.32-.24v4.2h4.22a1.9 1.9 0 0 0-.25-.3zM8.83 5.72A.86.86 0 0 1 8 4.86V0H.83A.86.86 0 0 0 0 .86v14.28a.86.86 0 0 0 .84.86h12a.86.86 0 0 0 .86-.86V5.72H8.84zm1.43 6.57a.28.28 0 0 1-.28.27H3.7a.28.28 0 0 1-.3-.28v-.58a.28.28 0 0 1 .3-.3h6.28a.28.28 0 0 1 .3.3v.57zm0-2.3a.28.28 0 0 1-.28.3H3.7a.28.28 0 0 1-.3-.3v-.57a.28.28 0 0 1 .3-.3h6.28a.28.28 0 0 1 .3.3V10zm0-2.28A.28.28 0 0 1 10 8H3.7a.28.28 0 0 1-.3-.28v-.58a.28.28 0 0 1 .3-.28h6.28a.28.28 0 0 1 .3.28v.58z" class="cls-1"/></svg>