<svg xmlns="http://www.w3.org/2000/svg" viewBox="0 0 16.27 16.73"><defs><style>.a{fill:#3a92d4;}</style></defs><title>quora-blue</title><path d="M12.08 10.02a6 6 0 0 0 1.25-3.7 6.1 6.1 0 0 0-1.8-4.44A6.5 6.5 0 0 0 6.7.02 6.57 6.57 0 0 0 1.8 1.84a6.24 6.24 0 0 0-.8 7.75 5.37 5.37 0 0 0 2.52 2.15 7.66 7.66 0 0 0 2.9.64q-.27.16-.7.4a11.37 11.37 0 0 0-1.63 1.06 1.14 1.14 0 0 0-.5.78.6.6 0 0 0 .17.43.52.52 0 0 0 .4.18 1.62 1.62 0 0 0 .95-.63 1.93 1.93 0 0 1 1.42-.66 2.17 2.17 0 0 1 1 .26 6.2 6.2 0 0 1 1.2.94 6.82 6.82 0 0 0 1.67 1.22 4.45 4.45 0 0 0 1.92.36 3.88 3.88 0 0 0 2.7-.93 3.92 3.92 0 0 0 1.23-2.4h-1a2.54 2.54 0 0 1-1 .77 3.1 3.1 0 0 1-1.3.26 7.63 7.63 0 0 1-3-.73 7.22 7.22 0 0 0-2.44-.68h-.24l1.35-.84a5.86 5.86 0 0 0 3.48-2.16zM4.4 2.32a2.73 2.73 0 0 1 4.55.1 7.82 7.82 0 0 1 .72 3.8 7.17 7.17 0 0 1-.77 3.9 2.6 2.6 0 0 1-2.3 1.12 2.4 2.4 0 0 1-2.2-1.22 8 8 0 0 1-.73-4 7.18 7.18 0 0 1 .74-3.7z" class="a"/></svg>