<svg xmlns="http://www.w3.org/2000/svg" viewBox="0 0 14.1 11.4" enable-background="new 0 0 14.1 11.4"><style type="text/css">.st0{fill:#999999;}</style><path id="_" d="M14.1 1.4c-.5.2-1.1.4-1.7.4.6-.4 1.1-.9 1.3-1.6-.6.3-1.2.6-1.8.7C10.8-.3 9-.3 7.8.8c-.6.5-.9 1.3-.9 2.1 0 .2 0 .4.1.7-2.4-.2-4.6-1.3-6-3.1-.8 1.3-.4 3 .9 3.9-.5 0-.9-.1-1.3-.4 0 1.4 1 2.6 2.3 2.8-.3.2-.5.2-.8.2-.2 0-.4 0-.5 0C2 8.2 3.1 9 4.3 9c-1 .8-2.3 1.2-3.6 1.2-.2 0-.5 0-.7 0 3.8 2.4 8.9 1.3 11.3-2.5.8-1.3 1.3-2.9 1.3-4.4 0-.1 0-.2 0-.4.6-.5 1.1-1 1.5-1.5z" class="st0"/></svg>