<svg xmlns="http://www.w3.org/2000/svg" viewBox="0 0 14.06 11.43"><defs><style>.a{fill:#3a92d4;}</style></defs><title>twitter-blue</title><path d="M14.06 1.35a5.77 5.77 0 0 1-1.66.45A2.87 2.87 0 0 0 13.67.2a5.68 5.68 0 0 1-1.83.7 2.9 2.9 0 0 0-5 2 3.24 3.24 0 0 0 .07.67A8.2 8.2 0 0 1 1 .53a2.9 2.9 0 0 0 .9 3.86A2.9 2.9 0 0 1 .56 4a2.88 2.88 0 0 0 2.3 2.88 3.07 3.07 0 0 1-.75.1 3.6 3.6 0 0 1-.54 0 2.9 2.9 0 0 0 2.7 2 5.78 5.78 0 0 1-3.58 1.2 5.92 5.92 0 0 1-.7 0A8.2 8.2 0 0 0 12.63 3.2c0-.12 0-.25 0-.37a6.2 6.2 0 0 0 1.43-1.5z" class="a"/></svg>